# xmcd CD database file
#
# Track frame offsets:
#	150
#	22097
#	42487
#	70797
#	92352
#	115697
#	127752
#	148390
#	160712
#	186622
#	222502
#	243360
#	260750
#	272937
#
# Disc length: 3803 seconds
#
# Revision: 0
# Processed by: cddbd v1.5.2PL0 Copyright (c) Steve Scherf et al.
# Submitted via: CDex 1.70beta2
#
DISCID=d50ed90e
DTITLE=Submedia - Submedia
DYEAR=1990
DGENRE=Jazz
TTITLE0=Pygmy Marmazette
TTITLE1=Degas
TTITLE2=She's A Fatty
TTITLE3=I Feel Fine
TTITLE4=Lost and Found
TTITLE5=Turkey Hunt
TTITLE6=Island Painting
TTITLE7=Blending Puppies
TTITLE8=Sheperd
TTITLE9=Extraterrestial
TTITLE10=Jellyfish
TTITLE11=Dolphins
TTITLE12=No Time
TTITLE13=Cave Beetle
EXTD=YEAR: 1990
EXTT0=
EXTT1=
EXTT2=
EXTT3=
EXTT4=
EXTT5=
EXTT6=
EXTT7=
EXTT8=
EXTT9=
EXTT10=
EXTT11=
EXTT12=
EXTT13=
PLAYORDER=
